<svg xmlns="http://www.w3.org/2000/svg" aria-hidden="true" style="position:absolute;width:0;height:0;overflow:hidden">
    <defs>
        <symbol id="icon-behance" viewBox="0 0 33 32">
            <path stroke-width=".4" d="M27.456 0H4.768c-2.592 0-4.7 2.102-4.7 4.688v22.624c0 2.586 2.108 4.688 4.7 4.688h22.688c2.592 0 4.701-2.103 4.701-4.688V4.688C32.157 2.102 30.048 0 27.456 0zm2.821 27.312a2.82 2.82 0 0 1-2.82 2.813H4.768a2.82 2.82 0 0 1-2.82-2.812V4.687a2.82 2.82 0 0 1 2.82-2.812h22.689a2.82 2.82 0 0 1 2.82 2.812v22.626z"/>
            <path stroke-width=".4" d="M15.172 13.187a3.759 3.759 0 0 0-3.76-3.75H5.771v13.125h5.64a3.76 3.76 0 0 0 3.761-3.75v-.001a3.727 3.727 0 0 0-1.272-2.808l-.004-.004a3.73 3.73 0 0 0 1.277-2.812zm-1.88 5.626a1.88 1.88 0 0 1-1.88 1.874h-3.76v-3.75h3.76a1.88 1.88 0 0 1 1.88 1.875zm-5.64-3.751v-3.75h3.76a1.88 1.88 0 0 1 1.88 1.874 1.88 1.88 0 0 1-1.88 1.875h-3.76zm14.101-1.875c-2.592 0-4.701 2.103-4.701 4.688s2.109 4.688 4.701 4.688a4.717 4.717 0 0 0 4.059-2.322l.012-.022-1.628-.938a2.825 2.825 0 0 1-5.096-.448l-.006-.02h7.36v-.938c0-2.585-2.109-4.688-4.701-4.688zm-2.659 3.751c.402-1.101 1.44-1.873 2.659-1.873s2.257.772 2.653 1.854l.006.02h-5.318zm-1.102-7.5h7.522v1.875h-7.522V9.438z"/>
        </symbol>
        <symbol id="icon-instagram" viewBox="0 0 31 32">
            <path stroke-width=".78" d="M9.495 1.009h.39v-.008h12.414c4.656 0 8.466 3.891 8.466 8.673v13.093c0 4.783-3.811 8.673-8.459 8.673H9.495c-4.656-.001-8.473-3.884-8.473-8.659V9.682c0-4.782 3.817-8.673 8.473-8.673zM2.59 9.688v13.101c0 3.892 3.066 7.038 6.906 7.038h12.811c3.828 0 6.892-3.147 6.892-7.052V9.683c0-3.906-3.065-7.053-6.899-7.053H9.496c-3.835 0-6.898 3.147-6.906 7.059zm21.919-3.067c0-.46.354-.81.784-.81s.784.35.784.81-.354.81-.784.81-.784-.35-.784-.81zM8.074 16.224c0-4.414 3.532-8.012 7.828-8.012s7.827 3.598 7.827 8.012-3.532 8.012-7.828 8.012-7.828-3.598-7.828-8.012zm14.088 0c0-3.539-2.779-6.392-6.259-6.392s-6.26 2.853-6.26 6.392 2.779 6.392 6.26 6.392c3.482 0 6.26-2.853 6.26-6.392z"/>
        </symbol>
        <symbol id="icon-linkedin" viewBox="0 0 32 32">
            <path stroke-width=".39" d="M26.985.502H4.819C2.288.502.228 2.556.228 5.081v22.106c0 2.525 2.061 4.58 4.592 4.58h22.165c2.532 0 4.592-2.055 4.592-4.58V5.081c0-2.526-2.061-4.58-4.592-4.58zm2.756 26.685a2.755 2.755 0 0 1-2.755 2.748H4.82a2.755 2.755 0 0 1-2.755-2.747V5.081A2.755 2.755 0 0 1 4.82 2.333h22.166a2.755 2.755 0 0 1 2.755 2.747v22.107z"/>
            <path d="M24.523 23.164h-3.365v-5.621a4.54 4.54 0 0 0-.126-1.149c-.402-1.56-2.139-1.469-2.831-.73-.347.372-.574.791-.584 1.31-.002.123-.009.247-.009.371v5.817h-3.359v-10.43h3.358v1.399l.027.012.072-.098c.337-.467.724-.882 1.237-1.161.574-.314 1.194-.418 1.839-.4.699.02 1.361.177 1.959.553.765.482 1.232 1.186 1.506 2.032.213.659.283 1.339.283 2.028.002 1.982 0 3.963 0 5.944 0 .039-.003.078-.005.123z"/>
            <path d="M24.523 23.164v.023h.023l.001-.023-.023-.001zm-3.366 0h-.023v.023h.023v-.023zm0-5.621h.001zm-.125-1.149zm-2.831-.73.018.016-.018-.016zm-.584 1.311zm-.009.371zm0 5.817v.024h.023v-.023h-.023zm-3.359 0h-.023v.024h.023v-.023zm0-10.432v-.023h-.023v.023h.023zm3.357 0h.023v-.023h-.023v.023zm0 1.4h-.024v.016l.014.006.009-.022zm.027.011-.009.022.017.008.012-.016-.02-.014zm.072-.097zm1.237-1.162zm1.838-.399.001-.023v.023zm1.959.553zm1.506 2.033zm.283 2.027zm0 5.945zm-.005.098h-3.365v.048h3.365v-.047zm-3.341.023v-.155h-.048v.155h.048zm0-.154v-5.466h-.047c-.002 1.822-.001 3.644-.001 5.466h.048zm0-5.466c0-.389-.029-.774-.126-1.155l-.047.012c.097.376.126.757.126 1.143h.048zm-.127-1.155c-.204-.79-.747-1.163-1.327-1.245-.578-.08-1.193.13-1.545.505l.035.033c.34-.364.939-.569 1.502-.49.562.078 1.089.439 1.288 1.21l.046-.012zm-2.871-.74c-.35.375-.581.8-.59 1.327h.047c.01-.511.234-.926.578-1.294l-.034-.033zm-.59 1.327c-.002.121-.009.247-.009.371h.047c0-.124.008-.245.01-.37l-.048-.002zm-.01.371-.001 5.657h.048v-5.657h-.047zm0 5.657v.161h.048v-.161h-.048zm.023.136h-3.358v.048h3.358v-.048zm-3.335.024v-10.43h-.047v10.43h.047zm-.023-10.408h3.358v-.048h-3.358v.048zm3.332-.023v1.398h.048v-1.399h-.048zm.016 1.421.027.012.019-.044-.027-.012-.02.044zm.054.004.073-.098-.039-.028-.072.097.039.029zm.073-.098c.336-.466.72-.877 1.229-1.155l-.023-.041c-.517.283-.907.7-1.244 1.169l.039.027zm1.229-1.155c.57-.31 1.185-.414 1.826-.396l.002-.047c-.648-.02-1.272.086-1.851.402l.023.042zm1.827-.397c.695.02 1.354.177 1.947.55l.026-.041c-.601-.379-1.269-.537-1.971-.557l-.002.048zm1.946.551c.76.478 1.224 1.179 1.496 2.019l.045-.014c-.275-.851-.744-1.561-1.516-2.046l-.026.041zm1.496 2.019c.212.656.281 1.334.282 2.021h.048c-.001-.69-.071-1.373-.285-2.035l-.045.014zm.282 2.02c.002 1.982.001 3.963.001 5.944h.048c0-1.981.002-3.963 0-5.944h-.048zm.001 5.945c0 .038-.004.075-.006.121l.048.002c.002-.043.006-.084.006-.123h-.048zM12.196 23.17H8.855V12.729h3.341V23.17z"/>
            <path d="M12.196 23.17v.023h.023v-.023h-.023zm-3.341 0h-.024v.023h.023v-.023zm0-10.441v-.024h-.024v.023h.023zm3.341 0h.023v-.024h-.023v.023zm0 10.416H8.855v.048h3.34v-.048zm-3.317.025V12.729h-.048V23.17h.048zm-.024-10.418h3.34v-.048h-3.34v.048zm3.317-.023V23.17h.047V12.729h-.047zM10.669 7.549c.523-.001.968.184 1.284.502s.502.766.503 1.295c.002.523-.186.968-.506 1.283s-.773.499-1.307.499c-1.04.002-1.78-.741-1.783-1.787s.749-1.791 1.808-1.792z"/>
        </symbol>
        <symbol id="icon-sport" viewBox="0 0 31 32">
            <path stroke-width=".78" d="m23.933 6.167.238-.3-.295-.244a12.943 12.943 0 0 0-8.313-3.001h-.017.001c-1.139.006-2.24.155-3.29.43l.092-.02-.567.141.349.47c1.085 1.46 2.644 3.665 4.511 7.12l.162.298.318-.119c3.533-1.311 5.651-3.319 6.81-4.775zM10.43 4.015l-.192-.252-.286.135c-3.509 1.655-6.168 4.817-7.217 8.678l-.13.476.494.016c1.932.062 6.551-.03 11.67-1.401l.483-.129-.243-.437c-1.986-3.578-3.655-5.868-4.58-7.086zM25.613 7.34l-.303-.361-.297.364c-1.293 1.577-3.537 3.627-7.09 5.017l-.395.155.187.381c.661 1.283 1.396 2.936 2.053 4.628l.133.388.112.296.312-.048a29.056 29.056 0 0 1 4.484-.337c.794 0 1.582.031 2.361.092l-.103-.006c.437.036.718.077 1.046.125l.614.087.043-.401c.053-.454.083-.98.083-1.513 0-3.388-1.225-6.489-3.256-8.886l.017.02zm-9.48 5.952-.144-.289-.311.088C9.658 14.8 4.355 14.749 2.703 14.682l-.376-.016-.029.375-.002.027c-.029.371-.058.753-.058 1.159 0 4.085 1.767 7.732 4.554 10.226l.291.261.26-.291a39.43 39.43 0 0 1 2.747-2.791l.028-.026.002-.001c2.143-1.976 4.901-4.066 7.905-4.979l.404-.123-.153-.393a55.218 55.218 0 0 0-2.295-5.15l.152.33zm7.407 6.163h-.005c-.938.047-1.794.129-2.639.246l.156-.018-.464.062.145.445a45.818 45.818 0 0 1 1.702 7.017l.098.617.511-.357c2.495-1.759 4.346-4.284 5.22-7.23l.024-.096.129-.445-.46-.052a28.395 28.395 0 0 0-4.416-.19zm-4.415.925-.12-.354-.359.104c-2.639.768-5.399 2.759-7.491 4.68a37.929 37.929 0 0 0-2.483 2.508l-.322.352.409.246a13.066 13.066 0 0 0 6.782 1.903c1.868 0 3.631-.395 5.24-1.09l.272-.117-.04-.293a42.556 42.556 0 0 0-1.889-7.938zM.677 16.22c0-8.393 6.686-15.219 14.871-15.219s14.871 6.826 14.871 15.22c0 8.392-6.686 15.218-14.871 15.218S.677 24.613.677 16.22z"/>
        </symbol>
    </defs>
</svg>